<?xml version="1.0" encoding="utf-8"?>
<!-- Generator: Adobe Illustrator 24.1.1, SVG Export Plug-In . SVG Version: 6.00 Build 0)  -->
<svg version="1.1" id="Layer_1" xmlns="http://www.w3.org/2000/svg" xmlns:xlink="http://www.w3.org/1999/xlink" x="0px" y="0px"
	 viewBox="0 0 500 500" style="enable-background:new 0 0 500 500;" xml:space="preserve">
<style type="text/css">
	.st0{fill:#FFFFFF;}
	.st1{fill:#00A9CF;}
</style>
<g>
	<g>
		<path class="st0" d="M179.27,239.18c-6.42,0-10.23-3.6-10.23-10.28V213h4.38v15.56c0,4.42,2.17,6.59,5.9,6.59
			c3.69,0,5.9-2.21,5.9-6.59V213h4.38v15.87C189.59,235.45,185.55,239.18,179.27,239.18z"/>
		<path class="st0" d="M215.82,239.23l-16.08-16.99v16.52h-4.38v-26.1l0.69-0.13l15.91,16.73V213h4.38v26.1L215.82,239.23z"/>
		<path class="st0" d="M222.54,238.75V213h4.38v25.75H222.54z"/>
		<path class="st0" d="M242.69,239.1h-0.56L230.21,213h5.03l7.24,17.12l7.2-17.12h4.9L242.69,239.1z"/>
		<path class="st0" d="M257.7,238.75V213h15.69v3.99h-11.32v6.72h10.23v3.86h-10.23v7.11h11.32v3.99H257.7V238.75z"/>
		<path class="st0" d="M292.94,238.75l-5.64-9.28c-0.48,0.04-0.87,0.04-1.39,0.04c-0.82,0-1.73-0.04-2.56-0.09v9.32h-4.38v-25.49
			c2.04-0.26,4.16-0.43,6.76-0.43c7.28,0,10.54,3.55,10.54,8.11c0,3.34-1.82,6.03-5.03,7.46l6.72,10.36H292.94z M286.35,216.77
			c-1.04,0-2.08,0.04-2.95,0.22v8.76c0.82,0.09,1.69,0.13,2.51,0.13c3.82,0,5.77-1.78,5.77-4.73
			C291.69,218.55,289.73,216.77,286.35,216.77z"/>
		<path class="st0" d="M307.77,239.18c-2.9,0-5.81-1.04-8.06-2.51l1.52-3.95c2.04,1.47,4.51,2.38,6.72,2.38
			c2.69,0,3.9-1.56,3.9-3.38c0-1.82-0.78-2.9-4.86-4.64c-4.51-1.91-6.11-4.21-6.11-7.28c0-3.73,3.08-7.2,8.45-7.2
			c2.47,0,4.94,0.82,6.46,1.86l-1.39,3.86c-1.39-0.95-3.42-1.82-5.16-1.82c-2.69,0-3.99,1.47-3.99,3.21c0,1.73,1.26,2.73,4.47,4.16
			c5.07,2.21,6.55,4.29,6.55,7.67C316.27,235.63,313.06,239.18,307.77,239.18z"/>
		<path class="st0" d="M321.08,238.75V213h4.38v25.75H321.08z"/>
		<path class="st0" d="M342.32,217.03v21.72h-4.38v-21.72h-8.19V213h20.72v3.99h-8.15V217.03z"/>
		<path class="st0" d="M365.73,227.91v10.8h-4.38v-10.84L352.29,213h5.03l6.29,10.88l6.24-10.88h4.9L365.73,227.91z"/>
		<path class="st0" d="M398.51,239.18c-7.46,0-12.88-5.64-12.88-13.27c0-7.67,5.68-13.31,13.14-13.31c7.46,0,12.88,5.64,12.88,13.31
			C411.65,233.5,405.97,239.18,398.51,239.18z M398.64,216.51c-4.9,0-8.32,3.99-8.32,9.36c0,5.33,3.42,9.36,8.32,9.36
			c4.9,0,8.28-4.03,8.28-9.36C406.92,220.54,403.54,216.51,398.64,216.51z"/>
		<path class="st0" d="M421.18,217.03v7.5h9.93v3.9h-9.93v10.32h-4.38V213h15.69v3.99h-11.32V217.03z"/>
	</g>
	<g>
		<path class="st0" d="M188.02,287.35c-11.4,0-19.16-7.67-19.16-18.08s7.72-18.12,19.16-18.12c4.08,0,7.8,1.21,10.93,3.08
			l-2.47,6.89c-2.56-1.43-5.51-2.34-8.37-2.34c-6.55,0-10.62,4.03-10.62,10.49c0,6.5,4.08,10.49,10.62,10.49
			c2.86,0,6.11-0.95,8.76-2.6l2.43,6.89C196.22,286.14,192.06,287.35,188.02,287.35z"/>
		<path class="st0" d="M226.18,286.79l-2.64-6.37h-12.1l-2.64,6.37h-8.19l16.47-35.29h1.08l16.47,35.29H226.18z M217.55,265.8
			l-3.47,8.41h6.94L217.55,265.8z"/>
		<path class="st0" d="M267.45,287.48l-21.11-18.95v18.3h-8.11v-35.55l1.08-0.17l20.81,18.82V251.8h8.11v35.55L267.45,287.48z"/>
		<path class="st0" d="M286.61,287.13c-3.08,0-7.02-0.3-10.45-0.74v-34.21c2.51-0.39,6.94-0.78,9.8-0.78
			c10.19,0,15.35,4.55,15.35,9.41c0,3.69-2.04,6.16-6.03,7.8c4.77,1.43,7.02,4.21,7.02,8.24
			C302.26,282.32,297.1,287.13,286.61,287.13z M287.7,258.52c-1.47,0-2.51,0.13-3.69,0.35v7.33c0.91,0.09,1.52,0.13,2.99,0.13
			c3.9,0,5.9-1.43,5.9-3.95C292.9,260.25,291.16,258.52,287.7,258.52z M287.09,271.79c-1.26,0-2.25,0.04-3.08,0.13v8.11
			c1.13,0.09,1.78,0.13,3.38,0.13c4.12,0,6.07-1.56,6.07-4.21C293.51,273.3,291.38,271.79,287.09,271.79z"/>
		<path class="st0" d="M308.59,286.79V251.8h22.15v7.46H316.7v6.24h12.79v7.07H316.7v6.85h14.05v7.41h-22.15V286.79z"/>
		<path class="st0" d="M356.67,286.79l-5.94-11.4c-0.48,0.04-0.91,0.04-1.39,0.04c-1.21,0-1.86-0.04-2.99-0.09v11.45h-8.11V252.1
			c2.95-0.35,6.2-0.56,10.32-0.56c10.88,0,15.17,5.2,15.17,11.62c0,4.16-2.25,7.89-6.03,10.14l8.24,13.53h-9.28V286.79z
			 M349.48,258.78c-1.26,0-1.99,0.04-3.16,0.26v9.67c1.04,0.09,1.6,0.13,2.6,0.13c3.86,0,6.37-1.86,6.37-5.38
			C355.24,260.51,352.94,258.78,349.48,258.78z"/>
		<path class="st0" d="M388.97,286.79l-5.98-11.4c-0.48,0.04-0.91,0.04-1.39,0.04c-1.21,0-1.86-0.04-2.99-0.09v11.45h-8.11V252.1
			c2.95-0.35,6.2-0.56,10.32-0.56c10.88,0,15.17,5.2,15.17,11.62c0,4.16-2.25,7.89-6.03,10.14l8.24,13.53h-9.23V286.79z
			 M381.78,258.78c-1.26,0-1.99,0.04-3.16,0.26v9.67c1.04,0.09,1.6,0.13,2.56,0.13c3.86,0,6.37-1.86,6.37-5.38
			C387.54,260.51,385.24,258.78,381.78,258.78z"/>
		<path class="st0" d="M424.05,286.79l-2.64-6.37h-12.1l-2.64,6.37h-8.28l16.47-35.29h1.08l16.47,35.29H424.05z M415.38,265.8
			l-3.47,8.41h6.94L415.38,265.8z"/>
	</g>
	<path class="st1" d="M144.5,245.17c-1.65-1.17-3.43-2.08-5.33-2.69c-0.61-0.17-1.21-0.35-1.82-0.48c0.39-0.48,0.78-0.95,1.17-1.47
		c1.17-1.6,2.08-3.43,2.73-5.33l0.13-0.35l-6.94-4.99l-0.13,0.82c-0.26,1.91-1,3.73-2.12,5.29c-1.82,2.51-4.51,4.16-7.59,4.64
		c-3.08,0.48-6.11-0.26-8.63-2.08c-2.51-1.82-4.16-4.51-4.64-7.59c-0.48-3.08,0.26-6.11,2.08-8.63c1.13-1.56,2.64-2.82,4.38-3.64
		l0.78-0.35l-6.89-5.03l-0.3,0.22c-1.6,1.17-3.03,2.6-4.21,4.25c-0.35,0.52-0.69,1.04-1.04,1.56c-0.3-0.52-0.65-1.04-1.04-1.56
		c-1.17-1.6-2.6-3.03-4.21-4.25l-0.3-0.22l-6.89,5.03l0.78,0.35c1.73,0.82,3.25,2.08,4.38,3.64c1.82,2.51,2.56,5.59,2.08,8.63
		c-0.48,3.08-2.12,5.77-4.64,7.59c-2.51,1.82-5.59,2.56-8.63,2.08c-3.08-0.48-5.77-2.12-7.59-4.64c-1.13-1.56-1.86-3.38-2.12-5.29
		l-0.13-0.82l-6.89,4.99l0.13,0.35c0.65,1.91,1.56,3.69,2.73,5.33c0.39,0.52,0.78,1,1.17,1.47c-0.61,0.13-1.21,0.3-1.82,0.48
		c-1.91,0.61-3.69,1.52-5.33,2.69l-0.3,0.22l2.64,8.11l0.61-0.61c1.3-1.39,2.99-2.43,4.81-3.03c6.07-1.99,12.66,1.39,14.61,7.46
		c1.99,6.07-1.39,12.66-7.46,14.61c-1.82,0.61-3.77,0.74-5.68,0.39l-0.82-0.17l2.64,8.11h0.39c1.99,0,3.99-0.35,5.9-0.95
		c0.61-0.17,1.17-0.43,1.73-0.65c-0.04,0.61-0.09,1.26-0.09,1.86c0,1.99,0.3,3.99,0.91,5.9l0.13,0.35h8.54l-0.39-0.74
		c-0.91-1.69-1.39-3.6-1.39-5.51c0-6.42,5.2-11.62,11.62-11.62s11.62,5.2,11.62,11.62c0,1.91-0.48,3.82-1.39,5.51l-0.39,0.74h8.54
		l0.13-0.35c0.61-1.91,0.91-3.9,0.91-5.9c0-0.65-0.04-1.26-0.09-1.86c0.56,0.26,1.13,0.48,1.73,0.65c1.91,0.61,3.9,0.95,5.9,0.95
		h0.39l2.64-8.11l-0.82,0.17c-1.86,0.35-3.86,0.22-5.68-0.39c-6.07-1.99-9.41-8.54-7.46-14.61c1.99-6.07,8.54-9.41,14.61-7.46
		c1.82,0.61,3.47,1.65,4.81,3.03l0.61,0.61l2.64-8.11L144.5,245.17z M113.89,262.77c-2.38-1.04-4.99-1.6-7.76-1.6
		c-2.73,0-5.38,0.56-7.76,1.6c0.26-2.56,0-5.25-0.87-7.85c-0.87-2.6-2.21-4.94-3.95-6.85c2.51-0.56,4.99-1.6,7.2-3.25
		c2.21-1.6,3.99-3.6,5.29-5.85c1.34,2.25,3.12,4.25,5.29,5.85c2.21,1.6,4.64,2.69,7.2,3.25c-1.73,1.95-3.08,4.25-3.95,6.85
		C113.89,257.52,113.63,260.21,113.89,262.77z"/>
</g>
</svg>
